<?xml version="1.0" encoding="UTF-8" standalone="no"?>
<!DOCTYPE svg PUBLIC "-//W3C//DTD SVG 1.1//EN" "http://www.w3.org/Graphics/SVG/1.1/DTD/svg11.dtd">
<svg width="100%" height="100%" viewBox="0 0 737 120" version="1.1" xmlns="http://www.w3.org/2000/svg" xmlns:xlink="http://www.w3.org/1999/xlink" xml:space="preserve" xmlns:serif="http://www.serif.com/" style="fill-rule:evenodd;clip-rule:evenodd;stroke-linejoin:round;stroke-miterlimit:2;">
    <g transform="matrix(1,0,0,1,-302.078,-28.536)">
        <g transform="matrix(4.16667,0,0,4.16667,452.618,-885.156)">
            <path d="M58.941,244.933C60.768,244.933 61.945,244.035 61.945,242.517C61.945,240.937 60.675,239.977 58.879,239.977L54.821,239.977L54.821,244.933L58.941,244.933ZM58.29,237.437C59.746,237.437 61.016,236.694 61.016,235.207C61.016,233.999 60.087,233.039 58.321,233.039L54.821,233.039L54.821,237.437L58.29,237.437ZM61.666,238.49C63.432,238.893 65.321,240.194 65.321,242.734C65.321,245.429 63.246,247.659 59.095,247.659L51.569,247.659L51.569,230.313L58.91,230.313C62.1,230.313 64.268,232.388 64.268,234.742C64.268,236.942 62.874,237.995 61.666,238.366L61.666,238.49Z" style="fill:rgb(20,52,63);fill-rule:nonzero;"/>
            <path d="M96.001,242.548C96.217,244.159 97.642,245.46 100.245,245.46C102.289,245.46 103.621,244.654 103.621,242.92C103.621,240.597 101.236,240.442 98.2,239.791C96.001,239.296 93.399,238.428 93.399,235.021C93.399,231.676 95.846,229.972 99.872,229.972C103.559,229.972 106.006,231.428 106.78,234.247L103.9,234.99C103.497,233.472 102.289,232.543 100.059,232.543C97.952,232.543 96.713,233.348 96.713,234.866C96.713,236.663 98.448,237.034 101.205,237.561C103.435,237.995 106.935,238.831 106.935,242.858C106.935,246.451 104.147,248 100.245,248C97.363,248 93.77,247.163 93.027,243.322L96.001,242.548Z" style="fill:rgb(20,52,63);fill-rule:nonzero;"/>
            <path d="M129.644,242.548C129.86,244.159 131.285,245.46 133.887,245.46C135.932,245.46 137.264,244.654 137.264,242.92C137.264,240.597 134.879,240.442 131.843,239.791C129.644,239.296 127.042,238.428 127.042,235.021C127.042,231.676 129.489,229.972 133.516,229.972C137.202,229.972 139.649,231.428 140.423,234.247L137.542,234.99C137.14,233.472 135.932,232.543 133.701,232.543C131.595,232.543 130.356,233.348 130.356,234.866C130.356,236.663 132.091,237.034 134.848,237.561C137.078,237.995 140.578,238.831 140.578,242.858C140.578,246.451 137.79,248 133.887,248C131.007,248 127.414,247.163 126.67,243.322L129.644,242.548Z" style="fill:rgb(20,52,63);fill-rule:nonzero;"/>
            <path d="M120.738,247.528L120.738,247.664L114.12,247.664L114.12,247.528C115.673,247.528 115.837,246.547 115.837,244.53L115.837,233.08C115.837,232.017 115.51,231.799 113.656,232.317L113.656,232.18L118.858,230.218L119.021,230.218L119.021,244.53C119.048,246.547 119.185,247.528 120.738,247.528Z" style="fill:rgb(20,52,63);fill-rule:nonzero;"/>
            <path d="M87.859,247.659L81.075,230.313L77.141,230.313L70.358,247.659L73.956,247.659L75.946,242.228L78.993,233.877L79.162,233.877C79.218,233.934 80.008,236.473 82.039,241.889L84.196,247.659L87.859,247.659Z" style="fill:rgb(20,52,63);fill-rule:nonzero;"/>
            <path d="M6.864,244.488C9.881,244.488 12.674,242.881 12.674,239.098C12.674,235.34 9.881,233.56 6.815,233.56L3.526,233.56L3.526,244.488L6.864,244.488ZM7.012,230.37C12.23,230.37 16.137,233.831 16.137,239.098C16.137,244.389 12.205,247.678 7.062,247.678L0.09,247.678L0.09,230.37L7.012,230.37Z" style="fill:rgb(20,52,63);fill-rule:nonzero;"/>
            <path d="M22.201,230.37L34.489,230.37L34.489,233.56L25.638,233.56L25.638,237.194L32.288,237.194L32.288,240.409L25.638,240.409L25.638,244.488L34.588,244.488L34.588,247.678L22.201,247.678L22.201,230.37Z" style="fill:rgb(20,52,63);fill-rule:nonzero;"/>
        </g>
        <g transform="matrix(0.570347,0,0,0.570347,302.046,27.9375)">
            <path d="M83.471,78.837C75.816,78.837 69.282,80.847 63.809,84.126L63.809,85.105C68.674,82.186 73.75,80.609 78.09,80.609C98.657,80.609 102.126,104.652 102.126,143.883C102.126,183.689 99.352,205.833 84.227,207.091L84.23,207.091L84.23,208.745L84.227,208.745C118.911,208.618 140.464,186.371 140.464,143.883C140.464,100.351 112.711,78.837 83.471,78.837Z" style="fill:rgb(228,167,54);fill-rule:nonzero;"/>
            <path d="M84.229,207.091L84.229,208.745L5.51,208.745L5.51,207.091C23.987,207.091 25.932,195.171 25.932,170.671L25.932,35.712C25.932,22.798 22.042,20.151 0,26.441L0,24.785L61.863,0.947L63.808,0.947L63.808,170.671C64.131,195.171 65.753,207.091 84.229,207.091Z" style="fill:rgb(20,52,63);fill-rule:nonzero;"/>
        </g>
    </g>
</svg>
